<svg xmlns="http://www.w3.org/2000/svg" width="27" height="26.325" viewBox="0 0 27 26.325"><defs><style>.a{fill:#dcdde1;}</style></defs><path class="a" d="M9.031,29.2c0,.109-.125.2-.283.2-.18.016-.3-.071-.3-.2,0-.109.125-.2.283-.2C8.889,28.985,9.031,29.072,9.031,29.2Zm-1.693-.245c-.038.109.071.234.234.267a.255.255,0,0,0,.337-.109c.033-.109-.071-.234-.234-.283A.279.279,0,0,0,7.338,28.952Zm2.406-.093c-.158.038-.267.142-.25.267.016.109.158.18.321.142s.267-.142.25-.25S9.9,28.843,9.744,28.86ZM13.326,8A13.053,13.053,0,0,0,0,21.282,13.648,13.648,0,0,0,9.227,34.3c.7.125.942-.3.942-.659,0-.338-.016-2.2-.016-3.342,0,0-3.81.817-4.611-1.622,0,0-.621-1.584-1.513-1.992,0,0-1.247-.855.087-.838a2.873,2.873,0,0,1,2.1,1.4,2.878,2.878,0,0,0,3.968,1.138,3.025,3.025,0,0,1,.871-1.834c-3.043-.338-6.113-.778-6.113-6.015a4.126,4.126,0,0,1,1.285-3.206,5.143,5.143,0,0,1,.142-3.7c1.138-.354,3.756,1.47,3.756,1.47a12.86,12.86,0,0,1,6.837,0s2.618-1.829,3.756-1.47a5.141,5.141,0,0,1,.142,3.7,4.231,4.231,0,0,1,1.4,3.206c0,5.253-3.206,5.672-6.249,6.015a3.219,3.219,0,0,1,.925,2.526c0,1.834-.016,4.1-.016,4.551,0,.354.25.784.942.659A13.522,13.522,0,0,0,27,21.282,13.347,13.347,0,0,0,13.326,8ZM5.291,26.775c-.071.054-.054.18.038.283.087.087.212.125.283.054.071-.054.054-.18-.038-.283C5.487,26.742,5.362,26.7,5.291,26.775ZM4.7,26.334c-.038.071.016.158.125.212a.162.162,0,0,0,.234-.038c.038-.071-.016-.158-.125-.212C4.828,26.263,4.741,26.279,4.7,26.334Zm1.764,1.938c-.087.071-.054.234.071.338.125.125.283.142.354.054.071-.071.038-.234-.071-.338C6.7,28.2,6.538,28.185,6.467,28.272Zm-.621-.8c-.087.054-.087.2,0,.321s.234.18.3.125a.248.248,0,0,0,0-.338c-.076-.125-.218-.18-.3-.109Z" transform="translate(0 -8)"/></svg>