<?xml version="1.0" encoding="iso-8859-1"?>
<!-- Generator: Adobe Illustrator 17.1.0, SVG Export Plug-In . SVG Version: 6.00 Build 0)  -->
<!DOCTYPE svg PUBLIC "-//W3C//DTD SVG 1.1//EN" "http://www.w3.org/Graphics/SVG/1.1/DTD/svg11.dtd">
<svg version="1.1" id="Capa_1" xmlns="http://www.w3.org/2000/svg" xmlns:xlink="http://www.w3.org/1999/xlink" x="0px" y="0px"
	 viewBox="0 0 512 512" style="enable-background:new 0 0 512 512;" xml:space="preserve">
<g>
	<path d="M301.821,185.795l-5.72-2.288c-22.486-8.995-57.716-8.995-80.202,0l-5.72,2.288c-23.64,9.456-42.159,36.808-42.159,62.27
		V424.02c0,26.462,21.528,47.99,47.99,47.99h79.979c26.462,0,47.99-21.528,47.99-47.99V248.064
		C343.98,222.603,325.461,195.251,301.821,185.795z M295.99,456.01H216.01c-17.64,0-31.99-14.351-31.99-31.99v-8.091
		c34.97-0.777,59.995-6.7,71.98-16.65c11.985,9.95,37.01,15.873,71.98,16.65v8.091C327.98,441.66,313.629,456.01,295.99,456.01z
		 M327.98,399.924C279.563,398.778,264,387.379,264,384.03v-23.994c0-4.418-3.582-8-8-8c-4.418,0-8,3.582-8,8v23.994
		c0,3.348-15.563,14.747-63.98,15.893V248.064c0-18.741,14.7-40.454,32.101-47.414l5.72-2.288
		c9.258-3.703,21.708-5.555,34.159-5.555c12.45,0,24.901,1.852,34.159,5.555l5.72,2.288c17.401,6.96,32.101,28.673,32.101,47.414
		V399.924z"/>
	<path d="M275.221,264.37c-6.222,9.474-10.921,15.684-19.221,15.684c-8.3,0-12.999-6.21-19.22-15.684
		c-5.02-7.644-10.708-16.308-20.769-16.308c-10.151,0-18.862,6.109-21.675,15.201c-2.698,8.72,0.812,17.685,9.159,23.396
		c3.647,2.496,8.625,1.562,11.12-2.085s1.562-8.625-2.085-11.12c-1.731-1.185-3.642-3.094-2.909-5.462
		c0.585-1.893,2.835-3.93,6.39-3.93c1.426,0,5.608,6.37,7.395,9.09c6.347,9.665,15.039,22.902,32.595,22.902
		s26.248-13.237,32.595-22.902c1.786-2.72,5.969-9.09,7.395-9.09c3.555,0,5.804,2.037,6.39,3.93
		c0.732,2.368-1.178,4.277-2.909,5.462c-3.646,2.495-4.58,7.474-2.085,11.12c2.495,3.646,7.473,4.579,11.12,2.085
		c8.347-5.711,11.857-14.676,9.159-23.396c-2.813-9.092-11.523-15.201-21.675-15.201C285.929,248.063,280.24,256.726,275.221,264.37
		z"/>
	<path d="M291.421,417.453c-9.438,6.565-20.904,6.565-35.421,6.565c-14.517,0-25.984,0-35.421-6.565
		c-3.625-2.522-8.612-1.629-11.136,1.999c-2.523,3.627-1.628,8.612,1.999,11.136c13.557,9.431,28.615,9.431,44.558,9.431
		s31.001,0,44.558-9.431c3.627-2.523,4.522-7.509,1.999-11.136C300.034,415.824,295.047,414.93,291.421,417.453z"/>
	<path d="M144.028,144.089c-9.27,0-15.998,10.092-15.998,23.996c0,13.904,6.728,23.996,15.998,23.996s15.998-10.092,15.998-23.996
		C160.026,154.181,153.298,144.089,144.028,144.089z"/>
	<path d="M367.972,144.089c-9.27,0-15.998,10.092-15.998,23.996c0,13.904,6.728,23.996,15.998,23.996s15.998-10.092,15.998-23.996
		C383.97,154.181,377.242,144.089,367.972,144.089z"/>
	<path d="M474.95,308.893c-9.939-26.4-25.035-48.08-37.165-65.501c-6.285-9.026-11.713-16.822-14.632-22.821
		c-11.397-23.428-15.189-36.609-15.189-68.482c0-22.978-5.782-43.16-17.043-60.157c0.648-1.138,1.029-2.449,1.047-3.852
		c0.002-0.181,0.218-18.343-0.5-37.203c-1.435-37.702-5.115-44.463-8.452-47.842C381.083,1.078,378.581,0,375.97,0
		c-5.901,0-12.575,3.99-25.962,23.462c-6.975,10.146-12.723,20.12-12.964,20.54c-0.85,1.479-1.17,3.114-1.029,4.693
		c-1.683-0.718-3.387-1.42-5.127-2.098c-36.964-14.407-73.35-14.604-74.894-14.605c-1.531,0.001-37.917,0.198-74.88,14.605
		c-1.739,0.678-3.444,1.38-5.127,2.098c0.141-1.579-0.179-3.214-1.029-4.693c-0.241-0.419-5.989-10.393-12.964-20.54
		C148.605,3.99,141.932,0,136.03,0c-2.611,0-5.113,1.078-7.046,3.035c-3.337,3.379-7.017,10.141-8.452,47.842
		c-0.718,18.86-0.502,37.022-0.5,37.203c0.018,1.402,0.398,2.714,1.046,3.852c-11.26,16.997-17.043,37.179-17.043,60.157
		c0,31.873-3.792,45.054-15.189,68.482c-2.918,5.999-8.347,13.795-14.632,22.821c-12.13,17.421-27.226,39.101-37.165,65.501
		c-11.936,31.703-13.471,62.224-4.695,93.307c11.603,41.094,42.651,71.26,92.281,89.661C169.532,508.506,220.853,512,256,512
		s86.468-3.494,131.363-20.139c49.63-18.401,80.678-48.567,92.282-89.661C488.421,371.117,486.885,340.596,474.95,308.893z
		 M350.913,51.978c7.457-12.962,16.24-25.683,21.921-32.1c1.691,9.781,3.054,29.412,3.184,54.377
		c-7.813-7.427-17.01-13.995-27.583-19.632C349.422,53.962,350.28,53.077,350.913,51.978z M139.165,19.878
		c5.681,6.417,14.465,19.138,21.922,32.1c0.633,1.099,1.491,1.984,2.478,2.646c-10.573,5.638-19.771,12.205-27.583,19.633
		C136.109,49.291,137.473,29.66,139.165,19.878z M464.247,397.853c-10.137,35.9-37.875,62.482-82.446,79.006
		C339.13,492.679,289.837,496,256,496s-83.13-3.321-125.801-19.141c-44.57-16.524-72.309-43.106-82.446-79.006
		c-17.77-62.935,16.75-112.512,39.592-145.317c6.667-9.576,12.425-17.845,15.889-24.965c11.849-24.356,16.802-40.227,16.802-75.481
		c0-42.683,22.378-73.11,66.512-90.438c34.193-13.424,69.116-13.659,69.445-13.66c0.345,0,34.886,0.184,69.083,13.513
		c44.383,17.299,66.887,47.776,66.887,90.584c0,35.254,4.953,51.125,16.802,75.481c3.464,7.12,9.222,15.389,15.889,24.965
		C447.497,285.341,482.017,334.917,464.247,397.853z"/>
</g>
<g>
</g>
<g>
</g>
<g>
</g>
<g>
</g>
<g>
</g>
<g>
</g>
<g>
</g>
<g>
</g>
<g>
</g>
<g>
</g>
<g>
</g>
<g>
</g>
<g>
</g>
<g>
</g>
<g>
</g>
</svg>
